<?xml version="1.0" encoding="utf-8"?>
<!-- Generator: Adobe Illustrator 17.1.0, SVG Export Plug-In . SVG Version: 6.00 Build 0)  -->
<!DOCTYPE svg PUBLIC "-//W3C//DTD SVG 1.1//EN" "http://www.w3.org/Graphics/SVG/1.1/DTD/svg11.dtd">
<svg version="1.1" id="Calque_1" xmlns="http://www.w3.org/2000/svg" xmlns:xlink="http://www.w3.org/1999/xlink" x="0px" y="0px"
	 viewBox="0 0 475.476 131.622" enable-background="new 0 0 475.476 131.622" xml:space="preserve">
<path fill="#FFFFFF" d="M124.436,60.952c-2.683-30.673-29.724-53.363-60.397-50.679C33.366,12.956,10.676,39.997,13.36,70.67
	s29.724,53.363,60.397,50.679C104.429,118.665,127.119,91.625,124.436,60.952z M50.43,48.192
	c5.418-12.107,19.678-17.546,31.783-12.128c3.392,1.518,4.911,5.498,3.393,8.89c-1.519,3.392-5.5,4.912-8.89,3.392
	c-5.338-2.389-11.617,0.01-14.004,5.343c-2.387,5.334,0.009,11.616,5.344,14.003c3.391,1.518,4.91,5.499,3.391,8.891
	c-1.118,2.499-3.574,3.981-6.145,3.981c-0.919,0-1.852-0.19-2.746-0.589C50.45,74.557,45.01,60.298,50.43,48.192z M87.366,83.43
	c-3.994,8.923-12.792,14.226-21.99,14.226c-3.28,0-6.61-0.674-9.792-2.098c-3.392-1.519-4.911-5.499-3.393-8.89
	c1.519-3.393,5.501-4.908,8.89-3.393c5.335,2.389,11.616-0.01,14.004-5.342c2.387-5.334-0.009-11.616-5.344-14.004
	c-3.391-1.518-4.91-5.499-3.391-8.89c1.518-3.392,5.497-4.912,8.89-3.392C87.345,57.065,92.786,71.323,87.366,83.43z"/>
<path fill="none" stroke="#FFFFFF" stroke-width="3" stroke-linecap="round" stroke-miterlimit="10" d="M65.306,73.835
	c-8.734-3.91-12.645-14.159-8.735-22.893s14.159-12.645,22.893-8.735"/>
<path fill="none" stroke="#FFFFFF" stroke-width="3" stroke-linecap="round" stroke-miterlimit="10" d="M72.489,57.787
	c8.734,3.91,12.645,14.159,8.735,22.893s-14.159,12.645-22.893,8.735"/>
<text transform="matrix(1 0 0 1 187.3315 89.9321)" fill="#FFFFFF" font-family="'BebasNeueLight'" font-size="66.971" letter-spacing="5">STREETZER</text>
</svg>
