<?xml version="1.0" encoding="utf-8"?>
<!-- Generator: Adobe Illustrator 17.1.0, SVG Export Plug-In . SVG Version: 6.00 Build 0)  -->
<!DOCTYPE svg PUBLIC "-//W3C//DTD SVG 1.1//EN" "http://www.w3.org/Graphics/SVG/1.1/DTD/svg11.dtd">
<svg version="1.1" id="Calque_1" xmlns="http://www.w3.org/2000/svg" xmlns:xlink="http://www.w3.org/1999/xlink" x="0px" y="0px"
	 viewBox="0 -4.9 595.3 143.8" enable-background="new 0 -4.9 595.3 143.8" xml:space="preserve">
<path fill="#FFFFFF" d="M174.7,61.2c-3.2-36.6-35.6-64.1-72.6-60.9S38,35.9,41.2,72.9s35.9,64.1,72.6,60.9
	C150.8,130.5,177.9,98.2,174.7,61.2z M85.9,46c6.3-14.4,23.6-21.1,38-14.4c4.2,1.8,6,6.7,4.2,10.6c-1.8,4.2-6.7,6-10.6,4.2
	c-6.3-2.8-14.1,0-16.9,6.3c-2.8,6.3,0,14.1,6.3,16.9c4.2,1.8,6,6.7,4.2,10.6c-1.4,3.2-4.2,4.9-7.4,4.9c-1.1,0-2.1-0.4-3.2-0.7
	C85.9,77.7,79.3,60.5,85.9,46z M130.3,88.3c-4.9,10.6-15.5,17.3-26.4,17.3c-3.9,0-8.1-0.7-11.6-2.5c-4.2-1.8-6-6.7-4.2-10.6
	c1.8-4.2,6.7-6,10.6-4.2c6.3,2.8,14.1,0,16.9-6.3c2.8-6.3,0-14.1-6.3-16.9c-4.2-1.8-6-6.7-4.2-10.6c1.8-4.2,6.7-6,10.6-4.2
	C130.3,56.6,136.7,73.9,130.3,88.3z"/>
<path fill="none" stroke="#FFFFFF" stroke-width="3" stroke-linecap="round" stroke-miterlimit="10" d="M103.6,76.7
	C93,72.1,88.4,59.8,93,49.2c4.6-10.6,16.9-15.1,27.5-10.6"/>
<path fill="none" stroke="#FFFFFF" stroke-width="3" stroke-linecap="round" stroke-miterlimit="10" d="M112.4,57.3
	c10.6,4.6,15.1,16.9,10.6,27.5c-4.6,10.5-17,15.1-27.5,10.5"/>
<text transform="matrix(1 0 0 1 250.2954 96.0253)" fill="#FFFFFF" font-family="'BebasNeueLight'" font-size="80.4697" letter-spacing="2">STREETZER</text>
</svg>
